#!OML:ASF F:\VICON\USERDATA\INSTALL\rory3\rory3.ASF
:FULLY-SPECIFIED
:DEGREES
505
root 1.95367 28.4474 -2.05874 -165.221 -7.30989 178.993
lowerback 8.80784 -2.5929 -4.11982
upperback 0.778894 -3.85745 1.53658
thorax -3.74569 -1.86895 4.36488
lowerneck -17.733 -2.8594 -7.41556
upperneck 39.2235 2.64792 0.514928
head 17.3909 1.27548 2.46284
rclavicle 7.05934e-014 4.27387e-015
rhumerus -13.5473 11.4841 -87.6201
rradius 82.6111
rwrist -15.0707
rhand -26.0879 13.2417
rfingers 7.12502
rthumb 0.460882 -16.7376
lclavicle 7.05934e-014 4.27387e-015
lhumerus -17.2487 2.1147 83.4253
lradius 56.7828
lwrist 0.945783
lhand -17.5064 11.7687
lfingers 7.12502
lthumb 8.74664 41.5675
rfemur -32.5915 3.06323 20.1089
rtibia 39.6474
rfoot -9.90149 0.869088
rtoes 3.67488
lfemur -31.0148 12.2465 -29.4094
ltibia 33.7117
lfoot -8.03304 -1.60108
ltoes -20.1062
506
root 1.98303 28.4651 -2.07723 -165.252 -7.90033 178.73
lowerback 8.78901 -2.61372 -4.07714
upperback 0.782205 -3.88246 1.45741
thorax -3.73749 -1.88238 4.2595
lowerneck -17.6051 -2.91825 -7.32732
upperneck 39.1704 2.57107 0.421694
head 17.3361 1.25638 2.38859
rclavicle -7.03201e-014 1.35174e-014
rhumerus -13.9235 11.2522 -87.5356
rradius 82.8392
rwrist -15.0478
rhand -26.452 13.1
rfingers 7.12502
rthumb 0.109224 -16.8797
lclavicle -7.03201e-014 1.35174e-014
lhumerus -17.5732 2.44428 83.5569
lradius 58.2185
lwrist 2.19608
lhand -16.8787 12.2911
lfingers 7.12502
lthumb 9.3524 42.0636
rfemur -32.3383 2.76051 20.0155
rtibia 39.5145
rfoot -9.87289 0.926819
rtoes 5.04084
lfemur -31.0389 12.1444 -29.4818
ltibia 33.9143
lfoot -7.62978 -2.3348
ltoes -19.6049
507
root 2.01087 28.4861 -2.09174 -165.157 -8.23349 178.595
lowerback 8.64437 -2.57691 -4.03739
upperback 0.759486 -3.82213 1.44414
thorax -3.68995 -1.85304 4.20871
lowerneck -17.5263 -2.93033 -7.24488
upperneck 39.1558 2.62139 0.255688
head 17.3117 1.27785 2.30979
rclavicle 7.78242e-014 -8.15017e-015
rhumerus -14.3642 11.1461 -87.4775
rradius 83.1063
rwrist -14.8513
rhand -26.8213 13.2229
rfingers 7.12502
rthumb -0.247496 -16.7567
lclavicle 7.78242e-014 -8.15017e-015
lhumerus -17.7976 2.82341 83.6935
lradius 59.5545
lwrist 3.65926
lhand -16.816 12.4175
lfingers 7.12502
lthumb 9.4129 42.1873
rfemur -32.2884 2.57908 20.008
rtibia 39.3468
rfoot -9.75629 0.905586
rtoes 5.86992
lfemur -31.3131 12.3195 -29.5535
ltibia 34.221
lfoot -7.2324 -2.98196
ltoes -19.3139
508
root 2.03949 28.5054 -2.10313 -165.129 -8.72639 178.572
lowerback 8.58984 -2.54892 -3.87167
upperback 0.768474 -3.76629 1.45257
thorax -3.66569 -1.82859 4.11493
lowerneck -17.6367 -3.01074 -7.22392
upperneck 39.3458 2.53028 0.363453
head 17.448 1.2678 2.3513
rclavicle 4.78698e-014 -1.02747e-014
rhumerus -14.865 10.9263 -87.4037
rradius 83.4848
rwrist -14.6495
rhand -27.1743 13.1802
rfingers 7.12502
rthumb -0.588412 -16.7987
lclavicle 4.78698e-014 -1.02747e-014
lhumerus -17.8387 3.16447 83.821
lradius 60.8161
lwrist 4.99447
lhand -16.776 12.7272
lfingers 7.12502
lthumb 9.45145 42.4952
rfemur -32.1503 2.35603 20.1603
rtibia 39.1806
rfoot -9.64452 0.868775
rtoes 6.71476
lfemur -31.5651 12.4988 -29.4775
ltibia 34.5836
lfoot -6.73069 -3.71216
ltoes -19.2505
509
root 2.07461 28.5243 -2.12085 -165.326 -9.30353 178.596
lowerback 8.67758 -2.60355 -3.76549
upperback 0.938315 -3.83499 1.60078
thorax -3.52786 -1.8749 4.21592
lowerneck -18.0476 1.59461 -8.95353
upperneck 39.4 0.373873 2.5912
head 17.4816 -2.14502 2.44667
rclavicle 8.44835e-015 6.18717e-015
rhumerus -15.1407 11.0656 -87.1638
rradius 83.914
rwrist -14.6269
rhand -27.508 12.9506
rfingers 7.12502
rthumb -0.910754 -17.0272
lclavicle 8.44835e-015 6.18717e-015
lhumerus -17.7403 3.90898 84.0515
lradius 62.1051
lwrist 6.04201
lhand -17.0073 12.7198
lfingers 7.12502
lthumb 9.22834 42.4979
rfemur -31.6658 2.14141 20.4146
rtibia 38.9916
rfoot -9.39797 0.972378
rtoes 9.8483
lfemur -31.605 12.8824 -29.2798
ltibia 35.019
lfoot -6.22337 -4.65343
ltoes -19.4244
510
root 2.10234 28.541 -2.13516 -165.191 -9.92216 178.406
lowerback 8.40895 -2.63613 -3.69216
upperback 0.933787 -3.85918 1.6063
thorax -3.3848 -1.89068 4.16597
lowerneck -17.9037 1.54165 -8.87912
upperneck 39.3205 0.334786 2.44245
head 17.4069 -2.15903 2.35803
rclavicle 1.12761e-013 -2.40529e-014
rhumerus -15.5868 10.8715 -87.0137
rradius 84.2006
rwrist -14.4742
rhand -27.904 12.8761
rfingers 7.12502
rthumb -1.29323 -17.0997
lclavicle 1.12761e-013 -2.40529e-014
lhumerus -17.7371 4.32962 84.2544
lradius 63.3428
lwrist 7.13144
lhand -17.4102 12.1936
lfingers 7.12502
lthumb 8.83956 41.9885
rfemur -31.5647 1.7186 20.4414
rtibia 38.8063
rfoot -9.2073 0.898416
rtoes 11.511
lfemur -31.9831 12.9487 -29.3234
ltibia 35.4747
lfoot -5.56397 -5.51278
ltoes -19.0886
511
root 2.13124 28.5585 -2.15303 -165.165 -10.4585 178.251
lowerback 8.23615 -2.64231 -3.65207
upperback 0.989289 -3.8581 1.61893
thorax -3.23262 -1.8963 4.14331
lowerneck -17.9442 1.5175 -8.9411
upperneck 39.3683 0.315106 2.51095
head 17.4452 -2.16274 2.3996
rclavicle 1.23495e-014 -8.05078e-015
rhumerus -15.8873 10.7231 -86.9136
rradius 84.4021
rwrist -14.2963
rhand -28.2854 12.7897
rfingers 7.12502
rthumb -1.66157 -17.1836
lclavicle 1.23495e-014 -8.05078e-015
lhumerus -17.6104 4.70648 84.4019
lradius 64.6026
lwrist 8.49782
lhand -17.3459 12.1808
lfingers 7.12502
lthumb 8.90152 41.973
rfemur -31.3524 1.36707 20.4877
rtibia 38.5984
rfoot -9.16691 0.690064
rtoes 11.6657
lfemur -32.2612 13.0738 -29.2741
ltibia 35.9401
lfoot -4.73369 -6.4509
ltoes -18.2576
512
root 2.1658 28.576 -2.16698 -165.128 -11.2652 178.112
lowerback 8.16448 -2.63718 -3.4831
upperback 1.02586 -3.83547 1.56786
thorax -3.17143 -1.8896 3.98722
lowerneck -17.888 1.43259 -8.82303
upperneck 39.3716 0.138643 2.55589
head 17.4477 -2.19951 2.3686
rclavicle 2.23633e-015 7.65321e-015
rhumerus -16.2177 10.2205 -86.8246
rradius 84.6529
rwrist -14.127
rhand -28.7534 12.5759
rfingers 7.12502
rthumb -2.11354 -17.3934
lclavicle 2.23633e-015 7.65321e-015
lhumerus -17.4086 4.56057 84.5354
lradius 65.8048
lwrist 9.76014
lhand -17.4213 12.5395
lfingers 7.12502
lthumb 8.82884 42.3348
rfemur -31.1186 0.955231 20.5974
rtibia 38.3618
rfoot -9.29728 0.376721
rtoes 11.7671
lfemur -32.6397 13.2191 -29.2148
ltibia 36.3977
lfoot -3.72796 -7.67111
ltoes -17.9947
513
root 2.21304 28.5937 -2.16969 -165.105 -12.2425 177.868
lowerback 8.35077 -2.73007 -3.54928
upperback 1.05158 -3.97203 1.61174
thorax -3.22829 -1.95662 4.09404
lowerneck -17.8907 1.38745 -8.8293
upperneck 39.3103 0.155354 2.47742
head 17.4154 -2.18733 2.34056
rclavicle -4.22417e-015 1.02374e-014
rhumerus -16.5065 9.97667 -86.6906
rradius 84.9129
rwrist -13.9669
rhand -29.3342 12.4663
rfingers 7.12502
rthumb -2.67448 -17.4967
lclavicle -4.22417e-015 1.02374e-014
lhumerus -17.1451 4.5383 84.728
lradius 66.9741
lwrist 10.7045
lhand -17.875 12.7753
lfingers 7.12502
lthumb 8.39093 42.5886
rfemur -30.8346 0.51657 20.6465
rtibia 38.064
rfoot -9.49507 -0.0519585
rtoes 11.6915
lfemur -33.0243 13.3065 -29.1974
ltibia 36.883
lfoot -2.67714 -9.08474
ltoes -18.4789
514
root 2.23551 28.6149 -2.18915 -165.312 -13.1347 177.58
lowerback 8.4795 -2.80575 -3.46074
upperback 1.15932 -4.07426 1.61721
thorax -3.18418 -2.01421 4.06417
lowerneck -17.7529 1.30363 -9.00639
upperneck 39.1976 0.0828797 2.56589
head 17.3238 -2.21344 2.40043
rclavicle -4.96962e-016 -5.76476e-015
rhumerus -16.9173 9.71745 -86.483
rradius 85.204
rwrist -13.7772
rhand -29.8734 12.4135
rfingers 7.12502
rthumb -3.1952 -17.5423
lclavicle -4.96962e-016 -5.76476e-015
lhumerus -16.8422 4.48549 84.9656
lradius 68.1637
lwrist 11.7768
lhand -18.4287 13.1993
lfingers 7.12502
lthumb 7.85657 43.0334
rfemur -30.2009 -0.0548669 20.5478
rtibia 37.6965
rfoot -9.60895 -0.265504
rtoes 11.7429
lfemur -33.0532 13.1939 -29.1334
ltibia 37.4093
lfoot -1.56582 -10.2733
ltoes -18.0251
515
root 2.27138 28.6389 -2.20536 -165.275 -14.0173 177.338
lowerback 8.39417 -2.86989 -3.50762
upperback 1.18457 -4.15961 1.67791
thorax -3.09459 -2.05914 4.15503
lowerneck -17.5809 1.21801 -9.22544
upperneck 39.0867 -0.0144596 2.72015
head 17.2264 -2.24824 2.49243
rclavicle 2.38542e-014 0
rhumerus -17.3369 9.48828 -86.2321
rradius 85.5229
rwrist -13.5397
rhand -30.5047 12.325
rfingers 7.12502
rthumb -3.80485 -17.6208
lclavicle 2.38542e-014 0
lhumerus -16.4621 4.41211 85.2157
lradius 69.3095
lwrist 13.0275
lhand -19.344 13.2949
lfingers 7.12502
lthumb 6.97308 43.1601
rfemur -29.859 -0.369931 20.5007
rtibia 37.2845
rfoot -9.71463 -0.723327
rtoes 11.964
lfemur -33.5073 13.5619 -29.1364
ltibia 38.0007
lfoot -0.141844 -11.9386
ltoes -16.6146
516
root 2.30937 28.6601 -2.21707 -165.272 -14.9219 177.341
lowerback 8.35797 -2.90033 -3.2647
upperback 1.21415 -4.17626 1.75648
thorax -3.05356 -2.07223 4.09855
lowerneck -17.7193 1.12444 -9.30067
upperneck 39.2572 -0.141967 2.77531
head 17.3689 -2.30871 2.51077
rclavicle 5.76476e-015 4.96962e-015
rhumerus -17.7875 9.1264 -86.0146
rradius 85.8751
rwrist -13.1894
rhand -31.1604 12.2535
rfingers 7.12502
rthumb -4.43805 -17.68
lclavicle 5.76476e-015 4.96962e-015
lhumerus -15.9469 4.21465 85.4526
lradius 70.2949
lwrist 14.2104
lhand -20.3249 12.7024
lfingers 7.12502
lthumb 6.02618 42.5967
rfemur -29.5976 -0.540516 20.7018
rtibia 36.8533
rfoot -9.82399 -1.3063
rtoes 11.8315
lfemur -34.0579 13.7602 -28.8471
ltibia 38.6351
lfoot 1.25371 -13.2756
ltoes -16.0593
517
root 2.34952 28.6761 -2.22843 -165.41 -15.7893 177.346
lowerback 8.49594 -2.90344 -3.10161
upperback 1.27002 -4.17123 1.85668
thorax -3.07686 -2.07381 4.11804
lowerneck -17.8962 1.0251 -9.31774
upperneck 39.4683 -0.273304 2.7524
head 17.5468 -2.3768 2.48191
rclavicle -2.26615e-014 -3.18055e-015
rhumerus -18.2949 8.76494 -85.758
rradius 86.2895
rwrist -12.9824
rhand -31.7351 12.2717
rfingers 7.12502
rthumb -4.99296 -17.6495
lclavicle -2.26615e-014 -3.18055e-015
lhumerus -15.3645 3.93023 85.6503
lradius 71.2718
lwrist 15.5249
lhand -20.7484 12.5564
lfingers 7.12502
lthumb 5.61724 42.4619
rfemur -29.1649 -0.750288 20.9192
rtibia 36.4439
rfoot -9.97731 -1.77716
rtoes 11.9297
lfemur -34.4455 13.7396 -28.4442
ltibia 39.3127
lfoot 2.303 -14.3551
ltoes -17.2516
